<svg width="364" height="448" fill="none" xmlns="http://www.w3.org/2000/svg"><path fill="#575756" d="M112 0h28v28h-28zM112 28h28v28h-28zM140 56h28v28h-28zM196 28h28v28h-28zM252 28h28v28h-28zM280 0h28v28h-28zM308 0h28v28h-28zM336 0h28v28h-28zM336 28h28v28h-28zM308 56h28v28h-28zM280 84h28v28h-28zM252 84h28v28h-28zM224 56h28v28h-28zM224 84h28v28h-28zM196 84h28v28h-28zM168 84h28v28h-28zM140 112h28v28h-28zM112 140h28v28h-28zM140 168h28v28h-28zM112 168h28v28h-28zM84 168h28v28H84zM56 168h28v28H56z"/><path fill="#fff" d="M56 196h28v28H56z"/><path fill="#C31718" d="M84 196h28v28H84zM112 196h28v28h-28zM140 196h28v28h-28zM140 224h28v28h-28zM224 224h28v28h-28zM252 224h28v28h-28zM280 252h28v28h-28zM280 280h28v28h-28zM280 308h28v28h-28zM280 336h28v28h-28zM252 252h28v28h-28zM224 252h28v28h-28zM196 252h28v28h-28zM168 280h28v28h-28zM168 308h28v28h-28zM168 336h28v28h-28zM196 280h28v28h-28zM224 280h28v28h-28zM252 280h28v28h-28zM252 308h28v28h-28zM252 336h28v28h-28zM224 308h28v28h-28zM196 308h28v28h-28zM196 336h28v28h-28zM224 336h28v28h-28zM112 224h28v28h-28zM84 224h28v28H84zM56 224h28v28H56zM56 252h28v28H56zM56 280h28v28H56zM56 308h28v28H56zM28 280h28v28H28zM28 308h28v28H28zM84 252h28v28H84zM112 252h28v28h-28zM84 280h28v28H84zM112 280h28v28h-28zM112 308h28v28h-28zM84 308h28v28H84z"/><path fill="#951417" d="M56 336h28v28H56zM84 336h28v28H84zM112 336h28v28h-28zM308 252h28v28h-28zM308 280h28v28h-28zM308 308h28v28h-28zM308 336h28v28h-28zM280 364h28v28h-28zM252 364h28v28h-28zM224 364h28v28h-28zM196 364h28v28h-28z"/><path fill="#fff" d="M28 224h28v28H28zM28 252h28v28H28zM196 224h28v28h-28zM168 252h28v28h-28z"/><path fill="#575756" d="M28 196h28v28H28zM0 224h28v28H0zM0 252h28v28H0zM0 280h28v28H0zM0 308h28v28H0zM28 336h28v28H28zM56 364h28v28H56z"/><path fill="#D9D9D9" d="M28 392h28v28H28zM56 420h28v28H56zM56 392h28v28H56zM84 392h28v28H84zM112 392h28v28h-28zM140 392h28v28h-28zM168 392h28v28h-28zM308 392h28v28h-28zM336 392h28v28h-28zM84 420h28v28H84zM112 420h28v28h-28zM140 420h28v28h-28zM168 420h28v28h-28zM196 420h28v28h-28zM224 420h28v28h-28zM252 420h28v28h-28zM280 420h28v28h-28z"/><path fill="#575756" d="M84 364h28v28H84zM112 364h28v28h-28zM140 364h28v28h-28zM168 364h28v28h-28zM196 392h28v28h-28zM224 392h28v28h-28zM252 392h28v28h-28zM280 392h28v28h-28zM308 364h28v28h-28zM336 336h28v28h-28zM336 308h28v28h-28zM336 280h28v28h-28zM336 252h28v28h-28zM308 224h28v28h-28zM280 224h28v28h-28zM280 196h28v28h-28zM252 196h28v28h-28zM224 196h28v28h-28zM196 196h28v28h-28zM168 196h28v28h-28zM168 224h28v28h-28zM140 252h28v28h-28zM140 280h28v28h-28zM140 308h28v28h-28zM140 336h28v28h-28z"/><path fill="#39A934" d="M140 28h28v28h-28zM252 56h28v28h-28zM280 56h28v28h-28z"/><path fill="#93C020" d="M168 28h28v28h-28zM168 56h28v28h-28zM196 56h28v28h-28zM280 28h28v28h-28zM308 28h28v28h-28z"/><path fill="#575756" d="M140 0h28v28h-28zM168 0h28v28h-28zM344.665 215v-14.545h5.738c1.099 0 2.036.196 2.813.589.781.388 1.375.94 1.783 1.655.412.71.617 1.546.617 2.507 0 .966-.208 1.797-.625 2.493-.416.691-1.02 1.221-1.811 1.591-.786.369-1.737.554-2.855.554h-3.842v-2.472h3.345c.587 0 1.075-.08 1.463-.241.388-.161.677-.403.867-.725.194-.322.291-.722.291-1.2 0-.483-.097-.89-.291-1.222-.19-.331-.481-.582-.874-.752-.388-.176-.878-.263-1.47-.263h-2.074V215h-3.075Zm7.855-6.619 3.615 6.619h-3.395l-3.537-6.619h3.317Zm-2.628 13.011c-1.51 0-2.95-.23-4.318-.689a13.672 13.672 0 0 1-3.757-1.946 13.685 13.685 0 0 1-4.901-6.712 13.482 13.482 0 0 1-.689-4.318c0-1.51.23-2.947.689-4.311a13.662 13.662 0 0 1 4.901-6.719 13.7 13.7 0 0 1 3.757-1.946 13.487 13.487 0 0 1 4.318-.689c1.51 0 2.947.23 4.311.689a13.573 13.573 0 0 1 3.757 1.946 13.531 13.531 0 0 1 2.962 2.962 13.546 13.546 0 0 1 1.946 3.757c.459 1.364.689 2.801.689 4.311a13.482 13.482 0 0 1-2.635 8.068 13.488 13.488 0 0 1-2.962 2.962 13.546 13.546 0 0 1-3.757 1.946 13.426 13.426 0 0 1-4.311.689Zm0-2.024c1.288 0 2.512-.197 3.672-.59a11.483 11.483 0 0 0 3.203-1.654 11.575 11.575 0 0 0 2.521-2.522 11.472 11.472 0 0 0 1.655-3.203 11.41 11.41 0 0 0 .59-3.672c0-1.288-.197-2.512-.59-3.672a11.5 11.5 0 0 0-1.655-3.203 11.57 11.57 0 0 0-2.521-2.521 11.486 11.486 0 0 0-3.203-1.655 11.365 11.365 0 0 0-3.672-.589 11.43 11.43 0 0 0-3.679.589c-1.165.388-2.232.94-3.203 1.655a11.794 11.794 0 0 0-2.521 2.521 11.744 11.744 0 0 0-1.655 3.203 11.5 11.5 0 0 0-.583 3.672c0 1.288.195 2.514.583 3.679.393 1.16.944 2.226 1.655 3.196a11.798 11.798 0 0 0 2.521 2.522 11.483 11.483 0 0 0 3.203 1.654 11.43 11.43 0 0 0 3.679.59Z"/></svg>