<svg width="364" height="448" viewBox="0 0 364 448" fill="none" xmlns="http://www.w3.org/2000/svg">
<rect x="112" width="28" height="28" fill="#575756"></rect>
<rect x="112" y="28" width="28" height="28" fill="#575756"></rect>
<rect x="140" y="56" width="28" height="28" fill="#575756"></rect>
<rect x="196" y="28" width="28" height="28" fill="#575756"></rect>
<rect x="252" y="28" width="28" height="28" fill="#575756"></rect>
<rect x="280" width="28" height="28" fill="#575756"></rect>
<rect x="308" width="28" height="28" fill="#575756"></rect>
<rect x="336" width="28" height="28" fill="#575756"></rect>
<rect x="336" y="28" width="28" height="28" fill="#575756"></rect>
<rect x="308" y="56" width="28" height="28" fill="#575756"></rect>
<rect x="280" y="84" width="28" height="28" fill="#575756"></rect>
<rect x="252" y="84" width="28" height="28" fill="#575756"></rect>
<rect x="224" y="56" width="28" height="28" fill="#575756"></rect>
<rect x="224" y="84" width="28" height="28" fill="#575756"></rect>
<rect x="196" y="84" width="28" height="28" fill="#575756"></rect>
<rect x="168" y="84" width="28" height="28" fill="#575756"></rect>
<rect x="140" y="112" width="28" height="28" fill="#575756"></rect>
<rect x="112" y="140" width="28" height="28" fill="#575756"></rect>
<rect x="140" y="168" width="28" height="28" fill="#575756"></rect>
<rect x="112" y="168" width="28" height="28" fill="#575756"></rect>
<rect x="84" y="168" width="28" height="28" fill="#575756"></rect>
<rect x="56" y="168" width="28" height="28" fill="#575756"></rect>
<rect x="56" y="196" width="28" height="28" fill="white"></rect>
<rect x="84" y="196" width="28" height="28" fill="#C31718"></rect>
<rect x="112" y="196" width="28" height="28" fill="#C31718"></rect>
<rect x="140" y="196" width="28" height="28" fill="#C31718"></rect>
<rect x="140" y="224" width="28" height="28" fill="#C31718"></rect>
<rect x="224" y="224" width="28" height="28" fill="#C31718"></rect>
<rect x="252" y="224" width="28" height="28" fill="#C31718"></rect>
<rect x="280" y="252" width="28" height="28" fill="#C31718"></rect>
<rect x="280" y="280" width="28" height="28" fill="#C31718"></rect>
<rect x="280" y="308" width="28" height="28" fill="#C31718"></rect>
<rect x="280" y="336" width="28" height="28" fill="#C31718"></rect>
<rect x="252" y="252" width="28" height="28" fill="#C31718"></rect>
<rect x="224" y="252" width="28" height="28" fill="#C31718"></rect>
<rect x="196" y="252" width="28" height="28" fill="#C31718"></rect>
<rect x="168" y="280" width="28" height="28" fill="#C31718"></rect>
<rect x="168" y="308" width="28" height="28" fill="#C31718"></rect>
<rect x="168" y="336" width="28" height="28" fill="#C31718"></rect>
<rect x="196" y="280" width="28" height="28" fill="#C31718"></rect>
<rect x="224" y="280" width="28" height="28" fill="#C31718"></rect>
<rect x="252" y="280" width="28" height="28" fill="#C31718"></rect>
<rect x="252" y="308" width="28" height="28" fill="#C31718"></rect>
<rect x="252" y="336" width="28" height="28" fill="#C31718"></rect>
<rect x="224" y="308" width="28" height="28" fill="#C31718"></rect>
<rect x="196" y="308" width="28" height="28" fill="#C31718"></rect>
<rect x="196" y="336" width="28" height="28" fill="#C31718"></rect>
<rect x="224" y="336" width="28" height="28" fill="#C31718"></rect>
<rect x="112" y="224" width="28" height="28" fill="#C31718"></rect>
<rect x="84" y="224" width="28" height="28" fill="#C31718"></rect>
<rect x="56" y="224" width="28" height="28" fill="#C31718"></rect>
<rect x="56" y="252" width="28" height="28" fill="#C31718"></rect>
<rect x="56" y="280" width="28" height="28" fill="#C31718"></rect>
<rect x="56" y="308" width="28" height="28" fill="#C31718"></rect>
<rect x="28" y="280" width="28" height="28" fill="#C31718"></rect>
<rect x="28" y="308" width="28" height="28" fill="#C31718"></rect>
<rect x="84" y="252" width="28" height="28" fill="#C31718"></rect>
<rect x="112" y="252" width="28" height="28" fill="#C31718"></rect>
<rect x="84" y="280" width="28" height="28" fill="#C31718"></rect>
<rect x="112" y="280" width="28" height="28" fill="#C31718"></rect>
<rect x="112" y="308" width="28" height="28" fill="#C31718"></rect>
<rect x="84" y="308" width="28" height="28" fill="#C31718"></rect>
<rect x="56" y="336" width="28" height="28" fill="#951417"></rect>
<rect x="84" y="336" width="28" height="28" fill="#951417"></rect>
<rect x="112" y="336" width="28" height="28" fill="#951417"></rect>
<rect x="308" y="252" width="28" height="28" fill="#951417"></rect>
<rect x="308" y="280" width="28" height="28" fill="#951417"></rect>
<rect x="308" y="308" width="28" height="28" fill="#951417"></rect>
<rect x="308" y="336" width="28" height="28" fill="#951417"></rect>
<rect x="280" y="364" width="28" height="28" fill="#951417"></rect>
<rect x="252" y="364" width="28" height="28" fill="#951417"></rect>
<rect x="224" y="364" width="28" height="28" fill="#951417"></rect>
<rect x="196" y="364" width="28" height="28" fill="#951417"></rect>
<rect x="28" y="224" width="28" height="28" fill="white"></rect>
<rect x="28" y="252" width="28" height="28" fill="white"></rect>
<rect x="196" y="224" width="28" height="28" fill="white"></rect>
<rect x="168" y="252" width="28" height="28" fill="white"></rect>
<rect x="28" y="196" width="28" height="28" fill="#575756"></rect>
<rect y="224" width="28" height="28" fill="#575756"></rect>
<rect y="252" width="28" height="28" fill="#575756"></rect>
<rect y="280" width="28" height="28" fill="#575756"></rect>
<rect y="308" width="28" height="28" fill="#575756"></rect>
<rect x="28" y="336" width="28" height="28" fill="#575756"></rect>
<rect x="56" y="364" width="28" height="28" fill="#575756"></rect>
<rect x="28" y="392" width="28" height="28" fill="#D9D9D9"></rect>
<rect x="56" y="420" width="28" height="28" fill="#D9D9D9"></rect>
<rect x="56" y="392" width="28" height="28" fill="#D9D9D9"></rect>
<rect x="84" y="392" width="28" height="28" fill="#D9D9D9"></rect>
<rect x="112" y="392" width="28" height="28" fill="#D9D9D9"></rect>
<rect x="140" y="392" width="28" height="28" fill="#D9D9D9"></rect>
<rect x="168" y="392" width="28" height="28" fill="#D9D9D9"></rect>
<rect x="308" y="392" width="28" height="28" fill="#D9D9D9"></rect>
<rect x="336" y="392" width="28" height="28" fill="#D9D9D9"></rect>
<rect x="84" y="420" width="28" height="28" fill="#D9D9D9"></rect>
<rect x="112" y="420" width="28" height="28" fill="#D9D9D9"></rect>
<rect x="140" y="420" width="28" height="28" fill="#D9D9D9"></rect>
<rect x="168" y="420" width="28" height="28" fill="#D9D9D9"></rect>
<rect x="196" y="420" width="28" height="28" fill="#D9D9D9"></rect>
<rect x="224" y="420" width="28" height="28" fill="#D9D9D9"></rect>
<rect x="252" y="420" width="28" height="28" fill="#D9D9D9"></rect>
<rect x="280" y="420" width="28" height="28" fill="#D9D9D9"></rect>
<rect x="84" y="364" width="28" height="28" fill="#575756"></rect>
<rect x="112" y="364" width="28" height="28" fill="#575756"></rect>
<rect x="140" y="364" width="28" height="28" fill="#575756"></rect>
<rect x="168" y="364" width="28" height="28" fill="#575756"></rect>
<rect x="196" y="392" width="28" height="28" fill="#575756"></rect>
<rect x="224" y="392" width="28" height="28" fill="#575756"></rect>
<rect x="252" y="392" width="28" height="28" fill="#575756"></rect>
<rect x="280" y="392" width="28" height="28" fill="#575756"></rect>
<rect x="308" y="364" width="28" height="28" fill="#575756"></rect>
<rect x="336" y="336" width="28" height="28" fill="#575756"></rect>
<rect x="336" y="308" width="28" height="28" fill="#575756"></rect>
<rect x="336" y="280" width="28" height="28" fill="#575756"></rect>
<rect x="336" y="252" width="28" height="28" fill="#575756"></rect>
<rect x="308" y="224" width="28" height="28" fill="#575756"></rect>
<rect x="280" y="224" width="28" height="28" fill="#575756"></rect>
<rect x="280" y="196" width="28" height="28" fill="#575756"></rect>
<rect x="252" y="196" width="28" height="28" fill="#575756"></rect>
<rect x="224" y="196" width="28" height="28" fill="#575756"></rect>
<rect x="196" y="196" width="28" height="28" fill="#575756"></rect>
<rect x="168" y="196" width="28" height="28" fill="#575756"></rect>
<rect x="168" y="224" width="28" height="28" fill="#575756"></rect>
<rect x="140" y="252" width="28" height="28" fill="#575756"></rect>
<rect x="140" y="280" width="28" height="28" fill="#575756"></rect>
<rect x="140" y="308" width="28" height="28" fill="#575756"></rect>
<rect x="140" y="336" width="28" height="28" fill="#575756"></rect>
<rect x="140" y="28" width="28" height="28" fill="#39A934"></rect>
<rect x="252" y="56" width="28" height="28" fill="#39A934"></rect>
<rect x="280" y="56" width="28" height="28" fill="#39A934"></rect>
<rect x="168" y="28" width="28" height="28" fill="#93C020"></rect>
<rect x="168" y="56" width="28" height="28" fill="#93C020"></rect>
<rect x="196" y="56" width="28" height="28" fill="#93C020"></rect>
<rect x="280" y="28" width="28" height="28" fill="#93C020"></rect>
<rect x="308" y="28" width="28" height="28" fill="#93C020"></rect>
<rect x="140" width="28" height="28" fill="#575756"></rect>
<rect x="168" width="28" height="28" fill="#575756"></rect>
<path d="M344.665 215V200.455H350.403C351.502 200.455 352.439 200.651 353.216 201.044C353.997 201.432 354.591 201.984 354.999 202.699C355.411 203.409 355.616 204.245 355.616 205.206C355.616 206.172 355.408 207.003 354.991 207.699C354.575 208.39 353.971 208.92 353.18 209.29C352.394 209.659 351.443 209.844 350.325 209.844H346.483V207.372H349.828C350.415 207.372 350.903 207.292 351.291 207.131C351.679 206.97 351.968 206.728 352.158 206.406C352.352 206.084 352.449 205.684 352.449 205.206C352.449 204.723 352.352 204.316 352.158 203.984C351.968 203.653 351.677 203.402 351.284 203.232C350.896 203.056 350.406 202.969 349.814 202.969H347.74V215H344.665ZM352.52 208.381L356.135 215H352.74L349.203 208.381H352.52ZM349.892 221.392C348.382 221.392 346.942 221.162 345.574 220.703C344.21 220.244 342.958 219.595 341.817 218.757C340.68 217.924 339.693 216.937 338.855 215.795C338.022 214.659 337.375 213.409 336.916 212.045C336.457 210.677 336.227 209.238 336.227 207.727C336.227 206.217 336.457 204.78 336.916 203.416C337.375 202.048 338.022 200.795 338.855 199.659C339.693 198.518 340.68 197.531 341.817 196.697C342.958 195.859 344.21 195.211 345.574 194.751C346.942 194.292 348.382 194.062 349.892 194.062C351.402 194.062 352.839 194.292 354.203 194.751C355.571 195.211 356.824 195.859 357.96 196.697C359.101 197.531 360.089 198.518 360.922 199.659C361.76 200.795 362.409 202.048 362.868 203.416C363.327 204.78 363.557 206.217 363.557 207.727C363.557 209.238 363.327 210.677 362.868 212.045C362.409 213.409 361.76 214.659 360.922 215.795C360.089 216.937 359.101 217.924 357.96 218.757C356.824 219.595 355.571 220.244 354.203 220.703C352.839 221.162 351.402 221.392 349.892 221.392ZM349.892 219.368C351.18 219.368 352.404 219.171 353.564 218.778C354.729 218.39 355.796 217.839 356.767 217.124C357.738 216.413 358.578 215.573 359.288 214.602C360.003 213.632 360.555 212.564 360.943 211.399C361.336 210.234 361.533 209.01 361.533 207.727C361.533 206.439 361.336 205.215 360.943 204.055C360.555 202.891 360.003 201.823 359.288 200.852C358.578 199.882 357.738 199.041 356.767 198.331C355.796 197.616 354.729 197.064 353.564 196.676C352.404 196.283 351.18 196.087 349.892 196.087C348.604 196.087 347.378 196.283 346.213 196.676C345.048 197.064 343.981 197.616 343.01 198.331C342.044 199.041 341.204 199.882 340.489 200.852C339.778 201.823 339.227 202.891 338.834 204.055C338.446 205.215 338.251 206.439 338.251 207.727C338.251 209.015 338.446 210.241 338.834 211.406C339.227 212.566 339.778 213.632 340.489 214.602C341.204 215.573 342.044 216.413 343.01 217.124C343.981 217.839 345.048 218.39 346.213 218.778C347.378 219.171 348.604 219.368 349.892 219.368Z" fill="#575756"></path>
</svg>
